Coordinates
version=1
nRows=12
nColumns=24
inDegrees=yes

Units are S.I. units (second, meters, Newtons, ...)
Angles are in degrees.

endheader
time	torso_tilt	torso_list	torso_rotation	torso_tx	torso_ty	torso_tz	lumbar_extension	lumbar_bending	lumbar_rotation	hip_flexion_r	hip_adduction_r	hip_rotation_r	knee_angle_r	ankle_angle_r	subtalar_angle_r	mtp_angle_r	hip_flexion_l	hip_adduction_l	hip_rotation_l	knee_angle_l	ankle_angle_l	subtalar_angle_l	mtp_angle_l
     41.43000000	     -7.42694866	      1.30520885	     -4.07832009	      0.16404965	      1.25414644	      0.01566217	      5.59378288	     -0.43627324	      5.16909303	     -2.26999677	     -3.40584354	     -6.73557229	     -2.90225789	      6.73962316	     -6.17132249	      0.00000000	     -0.93869236	     -3.25954695	     -0.68021393	     -3.42155933	      6.44998463	     -5.82553611	      0.00000000
     41.44000000	     -7.40312407	      1.29472470	     -4.04449093	      0.16399807	      1.25417036	      0.01556201	      5.37960621	     -0.44498627	      5.09831271	     -2.02443097	     -3.41764453	     -6.70209193	     -2.95022497	      6.76987377	     -6.13148772	      0.00000000	     -0.71739937	     -3.25377585	     -0.75981404	     -3.43275929	      6.44685880	     -5.78531194	      0.00000000
     41.45000000	     -7.40112995	      1.28383102	     -4.03685050	      0.16390265	      1.25409846	      0.01547149	      5.33483568	     -0.43773548	      5.08864571	     -1.99128123	     -3.41943250	     -6.71832844	     -2.90228083	      6.76839146	     -6.12229391	      0.00000000	     -0.69953053	     -3.25082802	     -0.77248901	     -3.36454145	      6.45570978	     -5.77305145	      0.00000000
     41.46000000	     -7.39349611	      1.27805630	     -4.02005217	      0.16388889	      1.25419967	      0.01537655	      5.25944677	     -0.45282535	      5.05624202	     -1.92163786	     -3.40855352	     -6.77028324	     -2.86285331	      6.70749459	     -6.08502327	      0.00000000	     -0.63949829	     -3.26328334	     -0.80483640	     -3.32235986	      6.41537778	     -5.75139437	      0.00000000
     41.47000000	     -7.42386360	      1.27204862	     -4.01430099	      0.16382798	      1.25414444	      0.01528790	      5.27628785	     -0.45262642	      5.05605928	     -1.90317590	     -3.40714037	     -6.77189250	     -2.84519376	      6.70776653	     -6.08217415	      0.00000000	     -0.62103999	     -3.26569163	     -0.80421413	     -3.30221834	      6.41764222	     -5.75114787	      0.00000000
     41.48000000	     -7.44421318	      1.26962012	     -3.96493137	      0.16375434	      1.25398887	      0.01518083	      5.28277686	     -0.47765171	      5.00437338	     -1.90356877	     -3.37993642	     -6.79560104	     -2.78662217	      6.71719705	     -6.06844928	      0.00000000	     -0.62997875	     -3.28616759	     -0.73564500	     -3.23882580	      6.45252047	     -5.78490153	      0.00000000
     41.49000000	     -7.50064382	      1.26821273	     -3.94368716	      0.16374961	      1.25393274	      0.01509471	      5.39617352	     -0.47066025	      5.02722689	     -2.00261847	     -3.38403259	     -6.91886577	     -2.69559991	      6.65953554	     -5.96619577	      0.00000000	     -0.69758195	     -3.27943053	     -0.60974842	     -3.19445113	      6.40651756	     -5.89878122	      0.00000000
     41.50000000	     -7.53574722	      1.27209158	     -3.92718822	      0.16381771	      1.25388581	      0.01502196	      5.42012915	     -0.48671661	      5.00107231	     -2.01466583	     -3.37466701	     -6.92264357	     -2.62494659	      6.65330334	     -5.94529560	      0.00000000	     -0.70714026	     -3.28923532	     -0.54561470	     -3.14574903	      6.40537549	     -5.92719242	      0.00000000
     41.51000000	     -7.60749201	      1.24819338	     -3.91651097	      0.16383264	      1.25380730	      0.01501272	      5.45080366	     -0.46280166	      5.08856106	     -1.98628422	     -3.36502012	     -7.03352935	     -2.57974419	      6.63519201	     -5.95392035	      0.00000000	     -0.65018794	     -3.29237416	     -0.65308924	     -3.08014415	      6.33487800	     -5.82031605	      0.00000000
     41.52000000	     -7.66150368	      1.22970896	     -3.90319478	      0.16381950	      1.25377781	      0.01503509	      5.40713261	     -0.45885574	      5.17059387	     -1.87508592	     -3.34714115	     -7.09374363	     -2.57128356	      6.61624032	     -5.97423837	      0.00000000	     -0.49537937	     -3.30714863	     -0.81590102	     -3.07943120	      6.32438198	     -5.56997433	      0.00000000
     41.53000000	     -7.70399495	      1.23609037	     -3.85850063	      0.16397193	      1.25382912	      0.01500987	      5.40482045	     -0.47367628	      5.12423209	     -1.81628093	     -3.34840585	     -7.10691299	     -2.57566301	      6.59055499	     -5.98064915	      0.00000000	     -0.45626104	     -3.30957555	     -0.80095398	     -3.04896675	      6.35592021	     -5.56739776	      0.00000000
     41.54000000	     -7.73107436	      1.23642236	     -3.80927391	      0.16401750	      1.25381884	      0.01500674	      5.35084456	     -0.47715471	      5.08426880	     -1.71529941	     -3.35633947	     -7.08896556	     -2.58218370	      6.59488769	     -6.02411567	      0.00000000	     -0.35036266	     -3.30107770	     -0.76862165	     -3.06424140	      6.35728703	     -5.58985287	      0.00000000
